<svg id="Group_425" data-name="Group 425" xmlns="http://www.w3.org/2000/svg" width="35.932" height="36.23" viewBox="0 0 35.932 36.23">
  <path id="Path_9900" data-name="Path 9900" d="M186.551,271.422a.453.453,0,0,0,.05-.086l.188-.422.047-.181a.509.509,0,0,0,.01-.068l.014-.086a1.875,1.875,0,0,0,0-.418l-.015-.094a.5.5,0,0,0-.011-.078l-.229-.583-.145-.215a1.622,1.622,0,0,0-.284-.289l-.713-.356-.264-.056a1.428,1.428,0,0,0-.219-.014h-8.713a1.553,1.553,0,0,0-.215.013l-.044,0a1.9,1.9,0,0,0-1.27.551L160.884,282.9v-3.358l9.012-9.012h1.093a1.854,1.854,0,0,0,1.048-.319l.021-.015a1.8,1.8,0,0,0,.257-.214,1.874,1.874,0,0,0-1.324-3.2l-1.746,0h-.033a1.883,1.883,0,0,0-1.473.548L157.663,277.4a1.87,1.87,0,0,0-.565,1.348l0,8.727v.038c0,.048,0,.1.009.143l.258.76.145.226a1.683,1.683,0,0,0,.138.158l.068.064a1.056,1.056,0,0,0,.1.08l.281.187a.787.787,0,0,0,.09.042l.4.14.036.01c.018,0,.035.006.073.011l.09.011a2.238,2.238,0,0,0,.393,0l.783-.263a.512.512,0,0,0,.092-.053l.119-.088a1.862,1.862,0,0,0,.16-.141l16.545-16.545h3.534L159.22,293.45a1.893,1.893,0,0,0,2.678,2.678l24.421-24.421a1.706,1.706,0,0,0,.132-.149Zm-.218-.153Z" transform="translate(-157.096 -266.775)" fill="#00e2e2"/>
  <path id="Path_9901" data-name="Path 9901" d="M200.959,299.086v-8.714a1.618,1.618,0,0,0-.012-.205l-.015-.1a.513.513,0,0,0-.023-.117l-.218-.544-.146-.216a1.786,1.786,0,0,0-.3-.3l-.265-.177a.447.447,0,0,0-.108-.052l-.422-.144a.485.485,0,0,0-.091-.014l-.078-.014a1.821,1.821,0,0,0-.42,0l-.092.016a.566.566,0,0,0-.057.008l-.651.26-.17.119a1.745,1.745,0,0,0-.157.138l-16.549,16.549h-3.534l21.188-21.188a1.894,1.894,0,1,0-2.678-2.678l-24.425,24.425c-.037.037-.074.078-.114.124l-.367.73-.055.271a2,2,0,0,0,0,.405l.018.128.239.635.143.217a1.789,1.789,0,0,0,.149.168,1.58,1.58,0,0,0,.145.128l.14.1a.382.382,0,0,0,.04.023l.468.211.329.071a1.8,1.8,0,0,0,.213.014l8.716,0a2.2,2.2,0,0,0,.221-.012l.036,0a1.881,1.881,0,0,0,1.269-.548l13.855-13.855V298.3l-9.031,9.031h-1.25a1.825,1.825,0,0,0-.78.172,1.7,1.7,0,0,0-.465.3.9.9,0,0,0-.08.073.684.684,0,0,0-.061.066,1.87,1.87,0,0,0,1.385,3.132h1.869a1.6,1.6,0,0,0,.177-.009l.107.033.042-.042a1.885,1.885,0,0,0,1.231-.55L200.4,300.433A1.876,1.876,0,0,0,200.959,299.086Z" transform="translate(-165.028 -274.873)" fill="#00e2e2"/>
</svg>
